<?xml version="1.0" encoding="UTF-8"?>
<svg width="500" height="500" version="1.1" viewBox="0 0 500 500" xmlns="http://www.w3.org/2000/svg" xmlns:cc="http://creativecommons.org/ns#" xmlns:dc="http://purl.org/dc/elements/1.1/" xmlns:rdf="http://www.w3.org/1999/02/22-rdf-syntax-ns#">
 <metadata>
  <rdf:RDF>
   <cc:Work rdf:about="">
    <dc:format>image/svg+xml</dc:format>
    <dc:type rdf:resource="http://purl.org/dc/dcmitype/StillImage"/>
    <dc:title/>
   </cc:Work>
  </rdf:RDF>
 </metadata>
 <g transform="translate(-1.2374 -.76007)">
  <g transform="translate(2.0245 1.0151)">
   <path d="m-0.78711 249.74v-250h500v500h-500z" fill="#fdfdfd"/>
   <path d="m204.23 455.49c-5.9772-3.0538-9.7558-8.0849-11-14.646-0.61362-3.2356-1.0197-26.786-1.0197-59.135v-53.758l-11.75-0.35629c-10.092-0.30601-12.264-0.67588-15.394-2.6211-7.1567-4.4486-6.8565-0.96116-6.8565-79.634v-70.599h182.05l-0.27585 70.75-0.27586 70.75-2.3465 3.7742c-3.6167 5.8172-6.9557 7.0825-19.903 7.5422l-11.25 0.39941v53.756c0 32.348-0.40609 55.897-1.0197 59.132-3.3996 17.926-25.879 22.816-36.48 7.9364l-3-4.2108-0.56166-116.83h-31.877l-0.56166 116.83-3 4.2108c-6.0132 8.44-16.624 11.234-25.48 6.7097zm54.98-261.25c0-0.825-0.42344-1.5-0.94098-1.5-1.261 0-2.1641 1.5616-1.3652 2.3605 1.1262 1.1262 2.3062 0.68589 2.3062-0.86052zm-157.63 138.73c-1.4309-0.928-41.22-55.961-42.617-58.944-0.78367-1.6737-0.65196-2.7926 0.5435-4.6171 2.2906-3.4958 31.789-24.674 34.368-24.674 1.3655 0 3.7064 1.778 6.2538 4.75l4.0714 4.75 6e-3 -7.25c4e-3 -4.1624 0.43234-7.25 1.0065-7.25 0.57143 0 1-3 1-7 0-3.85 0.42377-7 0.94171-7 0.54692 0 1.071-8.312 1.25-19.827 0.30815-19.818 0.30958-19.829 3.1109-24.058 6.1593-9.299 20.111-10.677 28.529-2.8173 5.1559 4.814 5.6038 6.8704 6.3608 29.202 0.39154 11.55 1.0057 23.718 1.3649 27.04 0.52766 4.8809 0.34491 6.2961-0.95202 7.3724-1.4108 1.1709-1.605 5.1205-1.605 32.645 0 19.692-0.39471 32.357-1.0636 34.128-2.3091 6.1128-9.3119 11.315-15.231 11.315-2.5788 0-5.5768 1.5614-12.48 6.5-8.5151 6.0914-12.146 7.493-14.858 5.7347zm16.978-16.878c8.8851-6.4036 16.23-11.692 16.323-11.752 0.0925-0.0598-0.44806-0.95149-1.2013-1.9816-1.287-1.7601-2.363-1.1652-17.853 9.8699-14.883 10.603-16.369 11.926-15.308 13.625 0.64631 1.0349 1.3348 1.8816 1.5299 1.8816s7.6244-5.2393 16.509-11.643zm-8.6741-62.92c0.16294-0.51563-0.1277-1.6087-0.64586-2.4291-1.2592-1.9936-3.554 0.17167-2.6576 2.5076 0.64399 1.6782 2.7643 1.6279 3.3035-0.0784zm252.3 65.469c-1.9408-1.1259-4.6408-3.6692-6-5.6518l-2.4713-3.6047-0.29013-32.541c-0.24997-28.036-0.50976-32.784-1.8764-34.294-1.255-1.3868-1.4432-2.9604-0.90119-7.5344 0.37681-3.1798 1.0006-15.232 1.3863-26.782 0.74578-22.336 1.1915-24.386 6.3501-29.202 8.4176-7.8595 22.369-6.4817 28.529 2.8173 2.8014 4.2293 2.8028 4.2404 3.1109 24.058 0.17904 11.515 0.70308 19.827 1.25 19.827 0.51794 0 0.94171 3.15 0.94171 7 0 4 0.42857 7 1 7 0.62069 0 1 5.5 1 14.5 0 7.975-0.25458 14.5-0.56574 14.5s-1.4362-0.46583-2.5-1.0352c-1.8817-1.0071-1.9343-0.50363-1.9343 18.532 0 15.399-0.32969 20.356-1.5477 23.272-1.8288 4.3769-4.9151 7.8819-8.6526 9.8265-4.0362 2.1001-12.628 1.7488-16.828-0.68805zm29.693-65.474c0.83346-2.172-1.2824-4.2145-2.797-2.7-1.28 1.28-0.48705 4.2672 1.1328 4.2672 0.58452 0 1.3334-0.70525 1.6642-1.5672zm-247.31-84.376c-2.9699-1.2649-5.2949-4.8655-6.0093-9.3063l-0.60328-3.75h-5.3722c-8.9603 0-9.3722-0.87653-9.3722-19.943 0-15.342 0.0839-16.002 2.2225-17.5 1.2224-0.85618 3.1899-1.5567 4.3722-1.5567 1.7158 0 2.2723-0.76691 2.7573-3.7999 2.0351-12.727 17.052-29.982 35.648-40.962 5.775-3.4098 11.077-6.5457 11.781-6.9687 0.9762-0.58592 0.66332-1.6717-1.3141-4.5603-3.0192-4.4104-2.9541-8.0678 0.15147-8.511 1.5719-0.22432 3.0709 1.0232 5.809 4.8344 2.7648 3.8484 4.1145 4.9645 5.3814 4.45 0.93008-0.37766 2.9201-1.1317 4.4223-1.6757l2.7313-0.98901-2.529-3.3157c-3.5533-4.6586-4.1834-9.6274-1.7152-13.526l1.9666-3.106 1.6222 2.4757c2.0468 3.1238 5.6663 4.2576 18.189 5.6977 5.4978 0.63225 10.785 1.5719 11.75 2.0882 1.561 0.8354 1.7539 0.39959 1.7539-3.9617 0-3.4433 0.61623-5.6837 2.0726-7.5352 2.4488-3.1131 3.9274-3.381 3.9274-0.71158 0 2.4645 4.4136 7.7221 8.0695 9.6126 1.5572 0.80525 2.9763 1.4641 3.1536 1.4641 0.17731 0 0.32238-1.7746 0.32238-3.9436 0-2.7871 0.70428-4.6933 2.4016-6.5 2.9803-3.1724 3.6761-3.1942 4.4429-0.13897 0.72537 2.8901 5.3365 5.9081 13.117 8.5848 3.1398 1.0802 8.2221 3.3254 11.294 4.9893s9.2842 3.9037 13.805 4.9773c4.5208 1.0737 10.754 2.8429 13.852 3.9317l5.6322 1.9796 3.5867-4.9924c2.6507-3.6895 4.1395-4.9135 5.7053-4.69 2.9141 0.41585 3.2443 4.1148 0.68792 7.705-2.4037 3.3757-2.5441 4.0974-0.79716 4.0974 0.69968 0 2.8658 1.3136 4.8136 2.9191s7.601 5.6346 12.563 8.9534c15.177 10.152 27.739 25.867 29.877 37.377 0.60354 3.249 1.0619 3.75 3.4303 3.75 5.4221 0 6.0437 2.0235 6.0437 19.674 0 18.961-0.17614 19.326-9.3287 19.326h-5.6713v3.4842c0 2.4368-0.8772 4.466-2.918 6.75-2.794 3.127-3.2767 3.2805-11.362 3.6127-10.218 0.41981-13.948-1.0717-15.853-6.3374l-1.2691-3.5096h-80.299c-78.865 0-80.299 0.0347-80.299 1.9442 0 1.0693-1.0857 3.2068-2.4128 4.75-2.2683 2.6378-2.9417 2.8198-11.25 3.0403-4.8605 0.12897-9.8016-0.17621-10.98-0.6782zm64.936-40.072c2.9715-2.3374 5.1524-8.0746 4.3241-11.375-0.96966-3.8634-4.5393-7.5059-8.5266-8.7005-7.1701-2.1482-14.09 3.5466-14.09 11.595 0 2.8696 0.75998 4.4557 3.4 7.0957 2.8514 2.8514 4.1205 3.4 7.8651 3.4 2.9625 0 5.3275-0.67832 7.0276-2.0156zm94.307-1.3844c2.64-2.64 3.4-4.2261 3.4-7.0957 0-8.0488-6.9201-13.744-14.09-11.595-6.6122 1.9811-10.015 8.2113-7.9325 14.522 1.6467 4.9896 5.3124 7.5687 10.758 7.5687 3.7447 0 5.0138-0.54861 7.8651-3.4zm-149.07-24.658c6.4374 0.13848 7.2404-0.0748 9.5-2.5237l2.4682-2.675-5 0.72337c-2.75 0.39785-6.5316 1.3614-8.4035 2.1413-1.872 0.77988-3.5926 1.2289-3.8237 0.99777-1.0024-1.0024 3.0471-6.7083 7.7824-10.966 5.349-4.8092 14.775-8.635 21.3-8.6453l3.1447-5e-3 -3-2.4591c-1.65-1.3525-3.5248-2.4753-4.1662-2.495-4.1868-0.12911-25.764 18.293-29.414 25.113-1.0217 1.909-0.94051 2.068 0.71354 1.3979 1.0265-0.41588 5.0306-0.68808 8.8981-0.60489zm197.94-2.6922c-4.125-5.5832-9.6041-11.262-12.783-13.249-2.1395-1.3372-3.6715-1.5676-6.3723-0.9585-5.9114 1.3332-5.7965 2.3735 0.70517 6.3866 3.3483 2.0667 7.0769 5.2696 8.2858 7.1176 1.8635 2.8487 2.8827 3.4157 6.698 3.7264 2.475 0.20153 4.8909 0.44753 5.3687 0.54666 0.47778 0.0991-0.37808-1.5072-1.9019-3.5698zm-30.026-24.718c-2.2143-1.6748-4.4411-1.9763-4.4411-0.60135 0 0.80193 1.6337 1.3824 5.4411 1.9334 0.51762 0.0749 0.0676-0.52451-1-1.332zm-27.991-10.644c0.584-0.54564 0.39137-0.89287-0.5-0.90126-0.7975-0.0075-2.432-0.27702-3.6322-0.59891-1.8419-0.49398-2.0955-0.25353-1.626 1.5417 0.42473 1.6242 1.0588 1.9756 2.6822 1.4865 1.1693-0.35224 2.5535-1.0399 3.076-1.528z" fill="#d5a66a"/>
   <path d="m192.88 437.08c-0.36667-0.36666-0.66667-25.069-0.66667-54.895v-54.228l-11.75-0.35629c-10.092-0.30601-12.264-0.67588-15.394-2.6211-7.1567-4.4486-6.8565-0.96116-6.8565-79.634v-70.599h76.635l6.8361 8.5c3.7598 4.675 6.9436 8.5 7.0749 8.5s3.4598-3.825 7.3966-8.5l7.1578-8.5h76.951l-0.27585 70.75-0.27586 70.75-2.3465 3.7742c-3.6161 5.8163-6.9564 7.0825-19.895 7.5419l-11.242 0.39914-0.25849 54.642-0.25849 54.642-40.5 0.54141v-110.04h-32v110h-19.833c-10.908 0-20.133-0.3-20.5-0.66667zm66.636-242.82c0.10845-0.54247-0.59032-1.138-1.5528-1.3233-1.0946-0.2108-1.75 0.27967-1.75 1.3096 0 1.7398 2.9553 1.752 3.3028 0.0137zm-159 137.24c-1.1254-1.2375-10.905-14.547-21.732-29.577-16.916-23.482-19.642-27.768-19.378-30.46 0.27254-2.7761 2.0725-4.4216 15.783-14.427 8.5112-6.2115 16.296-11.554 17.299-11.872 2.4869-0.78931 6.0238 1.7192 8.8629 6.2859l2.3631 3.8011 0.30093-7c0.1655-3.85 0.728-7.4275 1.25-7.95 0.52199-0.5225 0.94907-4.01 0.94907-7.75s0.41622-6.8 0.92494-6.8c0.52456 0 1.0656-8.5841 1.25-19.831l0.32506-19.831 2.8658-3.7545c5.673-7.4321 13.167-9.8964 21.59-7.099 5.072 1.6846 9.2822 5.582 11.298 10.458 0.58123 1.406 1.423 11.781 1.8706 23.056 0.44758 11.275 1.1015 23.238 1.453 26.584l0.63925 6.0842-36.97 23.663 10.586 14.584c18.679 25.734 18.678 25.732 17.594 28.814-1.1505 3.2714-31.562 25.271-34.934 25.271-1.1789 0-3.0643-1.0125-4.1898-2.25zm18.994-15.827c13.818-9.9712 15.48-11.472 14.573-13.166-0.60032-1.1217-1.6408-1.6752-2.517-1.339-0.82151 0.31524-8.4389 5.5512-16.928 11.635-14.033 10.058-15.336 11.246-14.353 13.082 0.59451 1.1108 1.654 1.7998 2.3544 1.531 0.70041-0.26877 8.2919-5.5531 16.87-11.743zm-15.297-10.382c8.729-6.3098 12.403-8.4057 14.46-8.25 1.6274 0.12313 3.0601-0.40637 3.4939-1.2913 0.40442-0.825 1.2399-2.4818 1.8566-3.6818 0.99978-1.9453-0.18806-4.0046-10.96-19-6.6445-9.25-13.163-18.262-14.486-20.027l-2.4047-3.209-16.424 11.709c-9.0329 6.44-16.449 12.039-16.48 12.442-0.09647 1.2446 27.716 39.767 28.711 39.767 0.29163 0 5.796-3.8064 12.232-8.4587zm5.8168-52.868c0.25298-2.1369-0.0979-2.6729-1.75-2.6729-1.4982 0-2.0664 0.64167-2.0664 2.3333 0 4.5404 3.2845 4.8326 3.8164 0.33955zm280.68 14.612c-1.65-0.84486-11.486-6.9566-21.858-13.582l-18.858-12.045 0.63887-6.0789c0.35138-3.3434 0.99478-15.304 1.4298-26.579 0.84115-21.803 1.6022-25.395 6.2966-29.716 2.4454-2.2512 9.7682-5.2884 12.726-5.2782 3.5549 0.0122 9.2276 2.2104 12.236 4.7415 6.0022 5.0505 6.8422 8.5987 6.8668 29.003 0.0138 11.485 0.39263 18.25 1.022 18.25 0.56863 0 1 2.9333 1 6.8 0 3.74 0.4632 7.2632 1.0293 7.8293 0.63363 0.63363 0.92195 6.2503 0.75 14.611l-0.27933 13.581zm1.3164-14.612c0.25298-2.1369-0.0979-2.6729-1.75-2.6729-1.4982 0-2.0664 0.64167-2.0664 2.3333 0 4.5404 3.2845 4.8326 3.8164 0.33955zm-244.99-83.382c-4.2054-0.64376-7.6729-4.8028-8.024-9.6241l-0.30345-4.1671-14-1v-36l3.3106-0.5c3.0633-0.46266 3.4741-0.98545 5.5-7 6.0322-17.909 19.875-31.465 45.308-44.372 5.0152-2.5452 9.5001-4.6276 9.9666-4.6276s2.7944-0.7433 5.1732-1.6518l4.3251-1.6518-2.5164-2.6266c-3.9754-4.1494-4.976-8.1551-3.1366-12.557l1.5492-3.7077 3.0558 2.5712c3.5829 3.0148 7.6969 4.1871 17.946 5.114 4.1149 0.37212 8.9272 1.2806 10.694 2.0188l3.2124 1.3422-0.56541-4.774c-0.5121-4.3239-0.27386-5.0948 2.5266-8.1756 3.0821-3.3907 3.0921-3.3935 3.1213-0.87408 0.0381 3.2864 2.2074 6.3014 6.3966 8.8905 4.7865 2.9582 5.6327 2.6633 5.6327-1.9634 0-3.0909 0.64888-4.6836 2.75-6.75l2.75-2.7045 0.31987 2.2524c0.44657 3.1447 5.2475 6.3842 15.18 10.243 4.675 1.8164 9.9467 4.1623 11.715 5.2132s8.2931 3.213 14.5 4.8047c6.2069 1.5917 13.76 3.8619 16.785 5.045s6.6698 2.2374 8.0997 2.3431c1.4298 0.10568 4.4664 1.6707 6.7481 3.4777 2.2816 1.8071 7.6368 5.5589 11.9 8.3374 14.779 9.6315 26.557 24.286 29.393 36.575 1.1338 4.9117 1.3805 5.2084 4.3305 5.2084 1.7205 0 3.6682 0.54 4.3282 1.2 1.7588 1.7588 1.6787 33.158-0.0883 34.624-0.70859 0.58808-4.1961 1.2057-7.75 1.3724l-6.4617 0.30321-0.56128 4.888c-0.7059 6.1474-3.1087 8.2395-10.528 9.1665-8.6806 1.0846-13.467 0.0657-16.703-3.5555l-2.7921-3.1246 0.15272-27.687 0.15272-27.687-3.8607-2.2576c-3.8298-2.2395-13.864-5.5517-26.361-8.7019-7.8547-1.9799-10.7-3.9825-12.309-8.6633l-1.2191-3.5462-10.986 4.1417c-21.762 8.2046-38.717 11.987-50.965 11.368-8.5494-0.43172-12.443-2.5853-13.908-7.6927-0.80184-2.7958-1.3141-3.1482-4.5767-3.1482-8.0482 0-22.518 6.1502-32.379 13.762l-4.8422 3.7378 0.13384 28.222c0.148 31.208-5e-3 32.056-6.1647 34.204-2.9795 1.0387-10.445 1.2099-15.957 0.36604zm9.2483-66.267c4.7294-0.0202 5.9436-0.42429 8-2.6622l2.4243-2.6383-5.6375 0.55447c-3.1006 0.30496-7.0879 1.3045-8.8606 2.2212l-3.2231 1.6667 2.3605-4.2412c4.491-8.0688 12.833-12.987 26.502-15.625l4.1419-0.79932-7.6022-5.3517-7.3408 4.852c-8.5975 5.6827-16.201 12.756-20.627 19.189l-3.1558 4.5868 3.7211-0.86431c2.0466-0.47538 6.2302-0.87505 9.2968-0.88817zm181.65 0.37197c-0.33229-0.33229-1.1948-0.36781-1.9167-0.0789-0.79773 0.31922-0.56078 0.55618 0.60417 0.60416 1.0542 0.0434 1.6448-0.19292 1.3125-0.52522zm15.577-2.4668c-0.9936-1.689-4.8588-6.0205-8.5893-9.6255-6.3337-6.1206-7.0183-6.5164-10.339-5.9775-3.4004 0.55181-6.378 2.2082-6.378 3.5481 0 0.3461 2.0329 1.7077 4.5176 3.0259s6.1769 4.2424 8.205 6.4983c3.4836 3.875 6.2747 5.1385 12.084 5.47 2.3028 0.13143 2.3036 0.12668 0.5-2.9393zm-154.03-22.238c-6.1837-9.7769-7.4547-10.737-11.411-8.6196-1.917 1.026-1.9299 1.1858-0.30193 3.75 0.93523 1.4731 2.7886 4.1407 4.1186 5.9279 2.3692 3.1837 2.4785 3.2183 5.395 1.7102 1.9386-1.0025 2.7057-1.9681 2.1995-2.7685zm109.62-2.5287c1.7073-2.6607 3.1042-5.0916 3.1042-5.4022s-1.3297-1.0282-2.9549-1.5947c-2.8196-0.98294-3.1202-0.79988-6.5687 4.0001-1.9876 2.7666-3.4539 5.1901-3.2585 5.3855 0.44426 0.44426 5.0552 2.2997 5.9278 2.3854 0.35517 0.03486 2.0427-2.1135 3.75-4.7742zm17.104 1.3632c0-1.1091-6.3138-3.6193-7.7334-3.0745-2.1605 0.82907-0.94998 1.7318 3.4724 2.5894 2.0686 0.40116 3.8735 0.78113 4.011 0.84438s0.25-0.09844 0.25-0.35932zm-30.675-12.59c0.45358-0.37662-0.8299-0.99517-2.8522-1.3746-4.2778-0.80253-4.8892-0.44914-4.0109 2.3183 0.56674 1.7856 0.96868 1.8921 3.3413 0.88543 1.4834-0.62941 3.0682-1.4525 3.5218-1.8291z" fill="#cf4d6c"/>
   <path d="m192.88 437.08c-0.36667-0.36666-0.66667-25.069-0.66667-54.895v-54.228l-11.75-0.35629c-10.092-0.30601-12.264-0.67588-15.394-2.6211-7.1567-4.4486-6.8565-0.96116-6.8565-79.634v-70.599h76.635l6.8361 8.5c3.7598 4.675 6.9436 8.5 7.0749 8.5s3.4598-3.825 7.3966-8.5l7.1578-8.5h76.951l-0.27585 70.75-0.27586 70.75-2.3465 3.7742c-3.6161 5.8163-6.9564 7.0825-19.895 7.5419l-11.242 0.39914-0.25849 54.642-0.25849 54.642-40.5 0.54141v-110.04h-32v110h-19.833c-10.908 0-20.133-0.3-20.5-0.66667zm66.636-242.82c0.10845-0.54247-0.59032-1.138-1.5528-1.3233-1.0946-0.2108-1.75 0.27967-1.75 1.3096 0 1.7398 2.9553 1.752 3.3028 0.0137zm-159 137.24c-1.1254-1.2375-10.905-14.547-21.732-29.577-16.916-23.482-19.642-27.768-19.378-30.46 0.27254-2.7761 2.0725-4.4216 15.783-14.427 8.5112-6.2115 16.296-11.554 17.299-11.872 2.4869-0.78931 6.0238 1.7192 8.8629 6.2859l2.3631 3.8011 0.30093-7c0.1655-3.85 0.728-7.4275 1.25-7.95 0.52199-0.5225 0.94907-4.01 0.94907-7.75s0.41622-6.8 0.92494-6.8c0.52456 0 1.0656-8.5841 1.25-19.831l0.32506-19.831 2.8658-3.7545c5.673-7.4321 13.167-9.8964 21.59-7.099 5.072 1.6846 9.2822 5.582 11.298 10.458 0.58123 1.406 1.423 11.781 1.8706 23.056 0.44758 11.275 1.1015 23.238 1.453 26.584l0.63925 6.0842-36.97 23.663 10.586 14.584c18.679 25.734 18.678 25.732 17.594 28.814-1.1505 3.2714-31.562 25.271-34.934 25.271-1.1789 0-3.0643-1.0125-4.1898-2.25zm19.035-15.856 15.637-11.284-1.6497-2.5552c-1.5554-2.4091-25.231-35.444-33.522-46.773l-3.8183-5.2177-16.436 11.718c-9.0395 6.4447-16.461 12.058-16.492 12.474-0.04999 0.66534 23.779 34.21 34.463 48.513 2.1648 2.8982 4.4409 5.0757 5.0581 4.8389 0.61718-0.23684 8.1589-5.5083 16.759-11.714zm-9.5211-63.221c0.25298-2.1369-0.0979-2.6729-1.75-2.6729-1.4982 0-2.0664 0.64167-2.0664 2.3333 0 4.5404 3.2845 4.8326 3.8164 0.33955zm280.68 14.612c-1.65-0.84486-11.486-6.9566-21.858-13.582l-18.858-12.045 0.63887-6.0789c0.35138-3.3434 0.99478-15.304 1.4298-26.579 0.84115-21.803 1.6022-25.395 6.2966-29.716 2.4454-2.2512 9.7682-5.2884 12.726-5.2782 3.5549 0.0122 9.2276 2.2104 12.236 4.7415 6.0022 5.0505 6.8422 8.5987 6.8668 29.003 0.0138 11.485 0.39263 18.25 1.022 18.25 0.56863 0 1 2.9333 1 6.8 0 3.74 0.4632 7.2632 1.0293 7.8293 0.63363 0.63363 0.92195 6.2503 0.75 14.611l-0.27933 13.581zm1.3164-14.612c0.25298-2.1369-0.0979-2.6729-1.75-2.6729-1.4982 0-2.0664 0.64167-2.0664 2.3333 0 4.5404 3.2845 4.8326 3.8164 0.33955zm-244.99-83.382c-4.2054-0.64376-7.6729-4.8028-8.024-9.6241l-0.30345-4.1671-14-1v-36l3.3106-0.5c3.0633-0.46266 3.4741-0.98545 5.5-7 6.0322-17.909 19.875-31.465 45.308-44.372 5.0152-2.5452 9.5001-4.6276 9.9666-4.6276s2.7944-0.7433 5.1732-1.6518l4.3251-1.6518-2.5164-2.6266c-3.9754-4.1494-4.976-8.1551-3.1366-12.557l1.5492-3.7077 3.0558 2.5712c3.5829 3.0148 7.6969 4.1871 17.946 5.114 4.1149 0.37212 8.9272 1.2806 10.694 2.0188l3.2124 1.3422-0.56541-4.774c-0.5121-4.3239-0.27386-5.0948 2.5266-8.1756 3.0821-3.3907 3.0921-3.3935 3.1213-0.87408 0.0381 3.2864 2.2074 6.3014 6.3966 8.8905 4.7865 2.9582 5.6327 2.6633 5.6327-1.9634 0-3.0909 0.64888-4.6836 2.75-6.75l2.75-2.7045 0.31987 2.2524c0.44657 3.1447 5.2475 6.3842 15.18 10.243 4.675 1.8164 9.9467 4.1623 11.715 5.2132s8.2931 3.213 14.5 4.8047c6.2069 1.5917 13.76 3.8619 16.785 5.045s6.6698 2.2374 8.0997 2.3431c1.4298 0.10568 4.4664 1.6707 6.7481 3.4777 2.2816 1.8071 7.6368 5.5589 11.9 8.3374 14.779 9.6315 26.557 24.286 29.393 36.575 1.1338 4.9117 1.3805 5.2084 4.3305 5.2084 1.7205 0 3.6682 0.54 4.3282 1.2 1.7588 1.7588 1.6787 33.158-0.0883 34.624-0.70859 0.58808-4.1961 1.2057-7.75 1.3724l-6.4617 0.30321-0.56128 4.888c-0.7059 6.1474-3.1087 8.2395-10.528 9.1665-8.6806 1.0846-13.467 0.0657-16.703-3.5555l-2.7921-3.1246 0.19366-27.687 0.19366-27.687-7.1412-3.5885c-3.9276-1.9737-9.7334-4.1444-12.902-4.8238-16.994-3.6441-20.582-5.4291-22.577-11.231l-1.2263-3.5671-10.979 4.1532c-21.759 8.2315-38.687 12.018-50.957 11.399-8.852-0.447-12.534-2.6109-13.95-8.1985-0.89509-3.5312-1.0604-3.6441-4.5-3.0724-11.415 1.8972-23.146 7.0257-32.438 14.182l-4.8675 3.7483 0.15916 28.222c0.17603 31.213 0.025 32.055-6.1393 34.204-2.9795 1.0387-10.445 1.2099-15.957 0.36604zm9.2483-66.267c4.7294-0.0202 5.9436-0.42429 8-2.6622l2.4243-2.6383-5.6375 0.55447c-3.1006 0.30496-7.0879 1.3045-8.8606 2.2212l-3.2231 1.6667 2.3605-4.2412c4.491-8.0688 12.833-12.987 26.502-15.625l4.1419-0.79932-7.6022-5.3517-7.3408 4.852c-8.5975 5.6827-16.201 12.756-20.627 19.189l-3.1558 4.5868 3.7211-0.86431c2.0466-0.47538 6.2302-0.87505 9.2968-0.88817zm181.65 0.37197c-0.33229-0.33229-1.1948-0.36781-1.9167-0.0789-0.79773 0.31922-0.56078 0.55618 0.60417 0.60416 1.0542 0.0434 1.6448-0.19292 1.3125-0.52522zm15.577-2.4668c-0.9936-1.689-4.8588-6.0205-8.5893-9.6255-6.3337-6.1206-7.0183-6.5164-10.339-5.9775-3.4004 0.55181-6.378 2.2082-6.378 3.5481 0 0.3461 2.0329 1.7077 4.5176 3.0259s6.1769 4.2424 8.205 6.4983c3.4836 3.875 6.2747 5.1385 12.084 5.47 2.3028 0.13143 2.3036 0.12668 0.5-2.9393zm-156.6-19.132c1.5384-0.66136 2.9844-1.3362 3.2134-1.4997s-1.2883-2.7724-3.3718-5.7975c-3.836-5.5696-5.8006-6.5141-8.8413-4.2503-1.5307 1.1397-1.349 1.7564 2.0589 6.9867 2.0558 3.1552 3.8291 5.7427 3.9407 5.75 0.11162 0.0073 1.4616-0.52777 3-1.1891zm112.19-5.6351c1.7073-2.6607 3.1042-5.0916 3.1042-5.4022s-1.3332-1.0294-2.9626-1.5974c-2.824-0.98445-3.1337-0.79971-6.6197 3.9492-2.0114 2.7401-3.4742 5.1648-3.2508 5.3882 0.48282 0.48283 5.054 2.3455 5.9788 2.4363 0.35517 0.03486 2.0427-2.1135 3.75-4.7742zm17.104 1.3632c0-1.1091-6.3138-3.6193-7.7334-3.0745-2.1605 0.82907-0.94998 1.7318 3.4724 2.5894 2.0686 0.40116 3.8735 0.78113 4.011 0.84438s0.25-0.09844 0.25-0.35932zm-30.675-12.59c0.45358-0.37662-0.8299-0.99517-2.8522-1.3746-4.2778-0.80253-4.8892-0.44914-4.0109 2.3183 0.56674 1.7856 0.96868 1.8921 3.3413 0.88543 1.4834-0.62941 3.0682-1.4525 3.5218-1.8291z" fill="#575755"/>
   <path d="m193.21 382.85v-54.897l-12.25-0.35282c-10.622-0.30594-12.734-0.65397-15.894-2.6186-7.1568-4.4505-6.8565-0.96227-6.8565-79.635v-70.599h58.589l32.125 38.831 31.787-38.777 59.552-0.0546-0.27585 70.75-0.27586 70.75-2.3465 3.7742c-3.6625 5.8908-6.9145 7.0932-20.403 7.5439l-11.75 0.39255v109.79h-40v-110h-32v110h-40v-54.897zm-91.288-50.353c-3.1297-2.3422-42.712-58.224-42.712-60.3 0-3.1306 1.3154-4.344 17.157-15.826 10.87-7.8792 15.432-10.624 17.656-10.624 3.1505 0 3.4737 0.35037 15.121 16.393 30.695 42.275 30.658 42.218 30.224 46.772-0.0871 0.91521-6.7959 6.3543-14.908 12.087-19.458 13.749-19.501 13.772-22.538 11.499zm17.538-16.513c8.6625-6.256 15.75-11.611 15.75-11.9 0-0.39612-36.96-52.318-38.585-54.204-0.17408-0.2021-7.9626 5.1168-17.308 11.82l-16.991 12.187 15.265 21.18c8.3959 11.649 17.257 23.948 19.692 27.332 2.4348 3.3834 4.8769 5.8834 5.4269 5.5555 0.55-0.32785 8.0875-5.7146 16.75-11.971zm-13.25-83.169v-7.0674h41v5.7109l-18.75 3.7024c-10.312 2.0363-19.538 3.9317-20.5 4.2119-1.5497 0.45123-1.75-0.29953-1.75-6.5578zm264.75 2.6901-19.75-4.036v-5.7214h41v7c0 3.85-0.3375 6.9535-0.75 6.8967-0.4125-0.0568-9.6375-1.9195-20.5-4.1393zm-211.75-99.257c0-22.948 0.32294-32.5 1.0988-32.5 0.60433 0 2.4196-1.4139 4.0338-3.142l2.935-3.142-5.9809 0.54233c-3.2895 0.29828-7.3463 1.2235-9.015 2.0559l-3.0341 1.5136 1.5339-2.9662c2.2821-4.4131 8.8304-10.359 14.192-12.888 2.6049-1.2283 7.5487-2.4615 10.986-2.7406s6.2404-0.78327 6.2286-1.1205c-0.0117-0.3372-1.7212-1.8147-3.7989-3.2834l-3.7776-2.6703-4.9511 2.8683c-8.7784 5.0855-16.791 12.337-23.701 21.45l-6.75 8.9018v45.621h-6.3c-3.5667 0-6.8206-0.52063-7.5-1.2-1.6822-1.6822-1.6822-32.918 0-34.6 0.66-0.66 2.4277-1.2 3.9283-1.2 2.498 0 2.8344-0.47405 3.9852-5.6163 1.3972-6.2434 5.7398-14.042 11.948-21.458 8.0984-9.6726 28.791-23.179 43.733-28.545 3.688-1.3245 7.3017-2.6259 8.0304-2.8921 0.9474-0.3461 0.44871-1.5471-1.75-4.2145-3.2937-3.9959-4.1042-9.483-1.9855-13.442 1.0773-2.013 1.1191-2.008 3.75 0.44512 3.3011 3.078 7.5294 4.3665 17.137 5.222 4.1119 0.36615 9.0841 1.2197 11.049 1.8968l3.5732 1.2311-0.0494-5.2842c-0.0388-4.1572 0.42128-5.7553 2.1574-7.4928l2.2067-2.2087 1.1129 2.9271c1.4968 3.9368 3.7363 6.2672 8.2237 8.5575l3.75 1.9139v-4.3318c0-2.9771 0.63764-5.0162 2.039-6.5203 2.3026-2.4716 3.9611-2.8328 3.9611-0.86288 0 2.5276 4.7548 5.7689 13.498 9.2012 4.8323 1.8971 10.635 4.528 12.894 5.8464 2.2595 1.3185 6.8082 2.9505 10.108 3.6267 3.3 0.67622 10.725 2.7977 16.5 4.7144s11.463 3.5978 12.64 3.7357c2.1823 0.25571 8.9581 4.0471 9.5394 5.3378 0.17639 0.39168 4.2075 3.3073 8.958 6.4791 16.064 10.725 27.692 25.21 29.686 36.976 0.67268 3.9707 0.95482 4.2773 4.199 4.5627 1.9128 0.16828 4.0404 1.0418 4.7279 1.9411 1.5674 2.0504 1.7505 30.449 0.21482 33.319-0.85958 1.6061-2.1319 1.9343-7.5 1.9343h-6.4648l-0.0147-21.75c-0.0104-15.422-0.37415-22.37-1.25-23.88-2.7231-4.6948-10.43-14.161-15.566-19.12-5.7226-5.5252-8.9268-6.4995-13.485-4.1003-3.8573 2.0303-3.5882 3.0938 1.4132 5.5861 2.6938 1.3424 6.5052 4.3135 8.4697 6.6024l3.5719 4.1617-5.3195 0.587c-5.0184 0.55378-5.9059 1.3439-1.0695 0.95213l2.25-0.18226v32.572c-4e-5 30.546-0.11059 32.572-1.7775 32.572-2.916 0-6.0876-2.8441-7.0025-6.2795-0.47173-1.7713-0.60172-14.85-0.28887-29.065l0.56882-25.844-8-3.8102c-4.4-2.0956-12.217-4.758-17.371-5.9163-14.196-3.1905-17.15-5-19.017-11.649-0.60713-2.1619-0.70454-2.1453-11.612 1.9894-21.73 8.2371-38.693 12.035-50.979 11.415-8.852-0.447-12.534-2.6109-13.95-8.1985-0.89433-3.5282-1.0633-3.644-4.5-3.0834-11.421 1.863-22.238 6.6745-33.497 14.9-4.5223 3.3038-5.2591 4.2594-4.45 5.7712 0.57867 1.0813 0.85005 12.523 0.67309 28.379l-0.2965 26.567-2.8058 2.412c-1.5432 1.3266-3.6807 2.412-4.75 2.412-1.8858 0-1.9442-0.97738-1.9442-32.5zm39.25-55.23c2.4326-0.69944 2.281-1.2027-2.2799-7.5721-3.8683-5.402-4.139-5.5809-6.75-4.4603-1.496 0.64208-2.8921 1.2858-3.1024 1.4306-0.21028 0.14475 1.3647 2.978 3.5 6.2961 2.7291 4.2409 4.3279 5.8511 5.3823 5.4209 0.825-0.3366 2.2875-0.83843 3.25-1.1152zm110.77-5.3079c1.7781-2.7709 3.0625-5.185 2.8542-5.3645-0.67342-0.58072-4.7324-2.5974-5.2277-2.5974-0.76862 0-7.9327 10.052-7.484 10.5 0.48282 0.48283 5.054 2.3455 5.9788 2.4363 0.35517 0.03486 2.1006-2.2037 3.8786-4.9746zm14.112-0.59607c-3.5423-2.1228-4.5279-2.3564-5.2347-1.2405-1.4544 2.2962-1.0545 2.7379 2.8486 3.1462 2.0625 0.21574 4.425 0.46365 5.25 0.5509 0.825 0.08725-0.46378-1.0182-2.864-2.4565zm-29.53-9.4389c2.6505-1.0376 2.7257-1.196 0.89408-1.8813-5.1129-1.913-7.4561-2.1005-6.9734-0.55809 0.26035 0.8318 0.69518 2.2159 0.9663 3.0757 0.27111 0.85986 0.88128 1.3234 1.3559 1.03 0.47464-0.29335 2.1653-1.0432 3.7571-1.6664z" fill="#694d21"/>
   <path d="m202.96 437-9.75-0.32692v-108.72l-12.25-0.35282c-10.622-0.30594-12.734-0.65397-15.894-2.6186-7.1568-4.4505-6.8565-0.96227-6.8565-79.635v-70.599h58.589l32.125 38.831 31.787-38.777 59.552-0.0546-0.27585 70.75-0.27586 70.75-2.3465 3.7742c-3.6625 5.8908-6.9145 7.0932-20.403 7.5439l-11.75 0.39255v108.48l-14.25 0.65189c-7.8375 0.35854-16.838 0.65354-20 0.65555l-5.75 4e-3v-110h-32v110l-10.25-0.20929c-5.6375-0.11511-14.638-0.3564-20-0.53621zm-101.04-104.5c-3.1297-2.3422-42.712-58.224-42.712-60.3 0-3.1306 1.3154-4.344 17.157-15.826 10.87-7.8792 15.432-10.624 17.656-10.624 3.1601 0 4.4292 1.3811 15.034 16.36 2.3908 3.377 9.8648 13.79 16.609 23.14s12.778 17.987 13.408 19.193c2.2942 4.3918-0.1985 6.7361-26.112 24.557-7.4112 5.0968-8.4612 5.4297-11.04 3.5zm17.538-16.513c8.6625-6.256 15.75-11.611 15.75-11.9 0-0.39612-36.96-52.318-38.585-54.204-0.17408-0.2021-7.966 5.1192-17.315 11.825l-16.999 12.193 15.627 21.675c8.5951 11.921 17.46 24.218 19.7 27.326 2.2398 3.1084 4.5224 5.3834 5.0724 5.0555 0.55-0.32785 8.0875-5.7146 16.75-11.971zm-13.25-83.169v-7.0674h41v5.7109l-18.75 3.7024c-10.312 2.0363-19.538 3.9317-20.5 4.2119-1.5497 0.45123-1.75-0.29953-1.75-6.5578zm264.75 2.6901-19.75-4.036v-5.7214h41v7c0 3.85-0.3375 6.9535-0.75 6.8967-0.4125-0.0568-9.6375-1.9195-20.5-4.1393zm-211.75-99.257v-32.5h2.3114c2.7752 0 6.4497 3.2 7.2259 6.2929 0.30888 1.2307 0.42683 13.858 0.26211 28.06l-0.29949 25.823-2.8058 2.4119c-1.5432 1.3266-3.6807 2.4119-4.75 2.4119-1.8858 0-1.9442-0.97738-1.9442-32.5zm175.26 30.971c-1.201-0.84122-2.5637-2.9787-3.0282-4.75-0.46452-1.7713-0.65563-14.655-0.42468-28.63 0.41384-25.042 0.45373-25.443 2.7603-27.75 1.2872-1.2872 3.2608-2.3404 4.3858-2.3404 2.0186 0 2.0454 0.42593 2.0454 32.5 0 30.477-0.11063 32.5-1.7775 32.5-0.97763 0-2.7601-0.68827-3.9611-1.5295zm-209.06-13.671c-1.6822-1.6822-1.6822-32.918 0-34.6 0.66-0.66 2.4277-1.2 3.9283-1.2 2.498 0 2.8344-0.47405 3.9852-5.6163 4.8708-21.765 32.762-43.679 69.964-54.969 11.396-3.4586 28.327-5.4876 45.947-5.5062 23.672-0.02502 41.157 3.0338 61.36 10.735 28.703 10.94 52.381 32.552 55.438 50.601 0.67268 3.9707 0.95482 4.2773 4.199 4.5627 1.9128 0.16828 4.0404 1.0418 4.7279 1.9411 1.5674 2.0504 1.7505 30.449 0.21482 33.319-0.85958 1.6061-2.1319 1.9343-7.5 1.9343h-6.4648l-0.0147-21.75c-0.0161-23.802 0.30003-22.349-6.9304-31.851-19.248-25.296-53.21-40.406-96.555-42.957-27.557-1.6222-56.711 4.4218-80.5 16.689-14.589 7.5228-22.751 14.144-31.25 25.35l-6.75 8.8997v45.621h-6.3c-3.5667 0-6.8206-0.52063-7.5-1.2z" fill="#344043"/>
   <path d="m203.46 437-10.25-0.32409v-108.72l-12.25-0.35282c-10.622-0.30594-12.734-0.65397-15.894-2.6186-7.1568-4.4505-6.8565-0.96227-6.8565-79.635v-70.599h47.557l21.402 25.973c14.13 17.148 21.765 25.666 22.472 25.071 0.5884-0.49603 10.295-12.159 21.57-25.917l20.5-25.016 48.552-0.111-0.27585 70.75-0.27586 70.75-2.3465 3.7742c-3.6625 5.8908-6.9145 7.0932-20.403 7.5439l-11.75 0.39255v108.48l-15.159 0.65613c-8.3374 0.36087-17.337 0.65613-20 0.65613l-4.841 3e-5v-110h-32v110l-9.75-0.2109c-5.3625-0.11599-14.362-0.35673-20-0.53498zm-101.48-104.5c-3.0955-2.396-42.714-58.265-42.725-60.25-0.0062-1.1 0.31936-2.5051 0.72344-3.1225 0.40408-0.61738 7.6425-6.1299 16.085-12.25 18.097-13.118 19.194-13.407 24.178-6.3775 1.8524 2.6125 3.636 4.975 3.9635 5.25s4.4475 5.9 9.1555 12.5 12.451 17.375 17.206 23.945c5.8472 8.0785 8.646 12.832 8.646 14.683 0 3.1353-2.4291 5.309-19.189 17.171-14.845 10.507-15.184 10.665-18.044 8.451zm17.01-16.06c8.4024-6.0327 15.527-11.373 15.833-11.868 0.41912-0.67815-24.359-36.199-37.117-53.21-1.3395-1.786-2.3437-1.2237-18.452 10.33l-17.036 12.219 3.7475 5.2328c24.158 33.733 35.889 49.335 36.732 48.85 0.55879-0.32192 7.8907-5.5212 16.293-11.554zm6.4228-162.89c-1.6822-1.6822-1.6822-32.918 0-34.6 0.66-0.66 2.4514-1.2 3.981-1.2 2.2288 0 2.8942-0.54602 3.3515-2.75 1.031-4.9694 4.7469-13.673 7.691-18.014 6.8039-10.033 21.397-21.683 36.684-29.286 23.464-11.671 42.978-16.011 72.117-16.042 18.105-0.01913 24.964 0.7016 39.474 4.1478 19.36 4.598 31.923 9.8315 46.203 19.247 16.425 10.83 28.053 24.866 30.817 37.197 1.0561 4.712 1.3182 5.0176 4.551 5.306 5.5004 0.4906 5.9303 1.8547 5.9303 18.814 0 18.131-0.12303 18.38-9.0714 18.38h-5.9286v-44.724l-3.75-4.7574c-10.655-13.518-13.839-16.798-21.457-22.11-36.616-25.531-89.157-32.225-137.09-17.469-9.99 3.0751-26.75 10.956-34.427 16.187-6.4892 4.4223-16.916 15.106-21.771 22.307l-4 5.933-0.30318 22.317-0.30317 22.317h-5.7468c-3.1608 0-6.2868-0.54-6.9468-1.2z" fill="#292928"/>
   <path d="m193.21 382.35v-54.397l-12.25-0.35282c-10.622-0.30594-12.734-0.65397-15.894-2.6186-7.1568-4.4505-6.8565-0.96227-6.8565-79.635v-70.599h46.55l21.868 26.526c19.71 23.908 22.027 26.38 23.475 25.051 0.8839-0.81114 10.832-12.722 22.107-26.469l20.5-24.994 47.552-0.1128-0.27585 70.75-0.27586 70.75-2.3465 3.7742c-3.6625 5.8908-6.9145 7.0932-20.403 7.5439l-11.75 0.39255v108.79h-20v-109h-72v109h-20v-54.397zm-90.749-50.14c-3.278-2.296-43.251-58.118-43.251-60.4 0-2.2134 2.2414-4.1199 19.986-17 6.8674-4.9847 13.475-9.063 14.683-9.063 2.7279 0 4.1894 1.8123 27.235 33.774 14.619 20.275 18.162 25.813 17.91 28-0.25952 2.2524-3.1625 4.7696-16.695 14.476-9.0094 6.4625-16.672 11.75-17.027 11.75s-1.6342-0.69165-2.8411-1.537zm16.642-15.463c8.8262-6.325 16.061-11.989 16.078-12.586 0.0534-1.949-38.031-53.918-39.42-53.792-1.2548 0.11359-32.139 21.904-32.985 23.273-0.65659 1.0624 38.436 55.286 39.56 54.871 0.39612-0.14625 7.9417-5.4409 16.768-11.766zm6.3073-163.2c-1.7273-1.7273-1.6819-33.157 0.05-34.589 0.6875-0.56868 2.5899-1.1863 4.2276-1.3724 2.647-0.30091 3.0579-0.81237 3.7009-4.6064 2.5921-15.294 21.121-33.895 46.322-46.504 8.3584-4.1819 22.124-8.6342 35.398-11.449 11.476-2.4335 14.567-2.6723 34.602-2.6723 20.063 0 23.116 0.23652 34.674 2.6869 12.703 2.693 27.677 7.5789 35.922 11.721 24.818 12.467 43.586 31.741 45.612 46.84 0.52117 3.8856 0.75776 4.1458 3.7694 4.1458 5.8893 0 6.5233 1.815 6.5233 18.674 0 17.836-0.24955 18.326-9.3287 18.326h-5.6713v-45.783l-4.75-5.8004c-12.596-15.382-20.997-22.279-36.75-30.174-20.703-10.376-43.464-15.255-71-15.22-32.225 0.04141-59.944 7.8386-83.516 23.493-6.9801 4.6355-17.408 14.921-20.515 20.235-1.0452 1.7875-2.2418 3.25-2.659 3.25s-1.4453 1.3276-2.2844 2.9503c-1.2322 2.3829-1.5257 7.1912-1.5257 25v22.05h-5.8c-3.19 0-6.34-0.54-7-1.2z" fill="#181818"/>
  </g>
 </g>
</svg>
